# xmcd
#
# Track frame offsets: 
#        150
#        9570
#        19212
#        28186
#        39863
#        47973
#        61447
#        74321
#        88435
#        102814
#        128437
#        138762
#        150815
#        162980
#        176607
#        180216
#
# Disc length: 2660 seconds
#
# Revision: 0
# Processed by: cddbd v1.5.2PL0 Copyright (c) Steve Scherf et al.
# Submitted via: ExactAudioCopy v0.99pb5
#
DISCID=c30a6210
DTITLE=Rusty Rogers - Rusty Rogers Remembers the Down Homers [CD 2 of 
DTITLE=2)
DYEAR=2004
DGENRE=Western
TTITLE0=Square Dance - Shorty Cook
TTITLE1=You'll Be Sorry - Hank Gunder
TTITLE2=Twenty One Froggies - Trio
TTITLE3=Won't You Come Back to Me Annabelle - Trio
TTITLE4=Happy-go-Lucky and Free - Rusty Rogers
TTITLE5=Crossroads - Trio
TTITLE6=Every Day I Love You More - Rusty Rogers
TTITLE7=All Through the Years - Trio
TTITLE8=Lazy River Winding - Rusty Rogers
TTITLE9=Follow the Sun - She Taught Me to Yodel - Bill Haley
TTITLE10=Heading for Heaven - Shorty Cook
TTITLE11=Yodeling Fool - Rusty Rogers
TTITLE12=Cool Water
TTITLE13=Old Shep - Rusty Rogers
TTITLE14=Sign Off Radio Show
TTITLE15=Epilogue - Rusty Rogers
EXTD=
EXTT0=
EXTT1=
EXTT2=
EXTT3=
EXTT4=
EXTT5=
EXTT6=
EXTT7=
EXTT8=
EXTT9=
EXTT10=
EXTT11=
EXTT12=
EXTT13=
EXTT14=
EXTT15=
PLAYORDER=
